<?xml version="1.0" encoding="UTF-8"?>
<svg width="480px" height="480px" viewBox="0 0 480 480" version="1.1" xmlns="http://www.w3.org/2000/svg" xmlns:xlink="http://www.w3.org/1999/xlink">
    <title>contact-us</title>
    <g id="contact-us" stroke="none" stroke-width="1" fill="none" fill-rule="evenodd">
        <rect fill="#FFFFFF" x="0" y="0" width="480" height="480"></rect>
        <g id="Group-5" transform="translate(30.000000, 30.000000)">
            <g id="Group-25" transform="translate(142.000000, 0.000000)" fill="#21B573" fill-rule="nonzero">
                <path d="M18.2223981,1.75792446 C23.963085,5.20727713 25.8654685,12.5825665 22.4714906,18.2310943 C19.0775126,23.8796222 11.6724037,25.6624059 5.93171679,22.2130532 C0.191029899,18.7637005 -1.71135359,11.3884112 1.68262435,5.73988333 C5.07660228,0.0913554933 12.4817112,-1.69142822 18.2223981,1.75792446 Z M17.1389981,3.93397083 L9.37269351,21.376775 C12.214236,22.3421201 15.4734647,21.9989596 18.1281557,20.1710843 C22.5231113,17.1449579 23.5968559,11.1954234 20.5264316,6.88242703 C19.6181594,5.60658548 18.4489928,4.61686781 17.1389981,3.93397083 Z M130.522335,8.91529914 L132.516653,14.94939 L132.550744,14.94939 L134.476881,8.91529914 L136.982563,8.91529914 L133.300744,18.8187082 C133.039381,19.5346173 132.675744,20.045981 132.209835,20.3527991 C131.743926,20.6596173 131.096199,20.8130264 130.266653,20.8130264 C130.016653,20.8130264 129.769494,20.8045037 129.525176,20.7874582 C129.280858,20.7704128 129.033699,20.7505264 128.783699,20.7277991 L128.783699,20.7277991 L128.783699,18.733481 C129.010972,18.7562082 129.243926,18.7789355 129.482563,18.8016628 C129.721199,18.82439 129.959835,18.8300719 130.198472,18.8187082 C130.516653,18.7846173 130.752449,18.6596173 130.905858,18.4437082 C131.059267,18.2277991 131.135972,17.9891628 131.135972,17.7277991 C131.135972,17.5346173 131.101881,17.3527991 131.033699,17.1823446 L131.033699,17.1823446 L127.948472,8.91529914 L130.522335,8.91529914 Z M106.164381,8.67666277 C106.857563,8.67666277 107.454153,8.80734459 107.954153,9.06870823 C108.454153,9.33007187 108.868926,9.67666277 109.198472,10.108481 C109.528017,10.5402991 109.772335,11.04314 109.931426,11.6170037 C110.090517,12.1908673 110.170063,12.7902991 110.170063,13.4152991 C110.170063,14.0062082 110.090517,14.57439 109.931426,15.1198446 C109.772335,15.6652991 109.530858,16.1482537 109.206994,16.5687082 C108.883131,16.9891628 108.479722,17.32439 107.996767,17.57439 C107.513813,17.82439 106.948472,17.94939 106.300744,17.94939 C105.75529,17.94939 105.252449,17.8385946 104.792222,17.6170037 C104.331994,17.3954128 103.954153,17.0687082 103.658699,16.63689 L103.658699,16.63689 L103.624608,16.63689 L103.624608,20.8130264 L101.204153,20.8130264 L101.204153,8.91529914 L103.50529,8.91529914 L103.50529,10.0402991 L103.539381,10.0402991 C103.834835,9.56302641 104.209835,9.2164355 104.664381,9.00052641 C105.118926,8.78461732 105.618926,8.67666277 106.164381,8.67666277 Z M70.9825625,5.26757187 C71.6530171,5.26757187 72.2865398,5.36416277 72.8831307,5.55734459 C73.4797216,5.75052641 74.0138125,6.03177641 74.4854034,6.40109459 C74.9569944,6.77041277 75.3461989,7.22779914 75.6530171,7.77325368 C75.9598353,8.31870823 76.1530171,8.94370823 76.2325625,9.64825368 L76.2325625,9.64825368 L73.6416534,9.64825368 C73.5961989,9.3414355 73.4939262,9.0601855 73.3348353,8.80450368 C73.1757444,8.54882187 72.9768807,8.32439005 72.7382444,8.13120823 C72.499608,7.93802641 72.2297216,7.78745823 71.9285853,7.67950368 C71.6274489,7.57154914 71.312108,7.51757187 70.9825625,7.51757187 C70.3802898,7.51757187 69.8689262,7.63404914 69.4484716,7.86700368 C69.0280171,8.09995823 68.687108,8.41245823 68.4257444,8.80450368 C68.1643807,9.19654914 67.9740398,9.64257187 67.8547216,10.1425719 C67.7354034,10.6425719 67.6757444,11.1596173 67.6757444,11.6937082 C67.6757444,12.2050719 67.7354034,12.702231 67.8547216,13.1851855 C67.9740398,13.66814 68.1643807,14.1027991 68.4257444,14.4891628 C68.687108,14.8755264 69.0280171,15.1851855 69.4484716,15.41814 C69.8689262,15.6510946 70.3802898,15.7675719 70.9825625,15.7675719 C71.8007444,15.7675719 72.4399489,15.5175719 72.9001762,15.0175719 C73.3604034,14.5175719 73.6416534,13.858481 73.7439262,13.0402991 L73.7439262,13.0402991 L76.3348353,13.0402991 C76.2666534,13.8016628 76.0905171,14.4891628 75.8064262,15.1027991 C75.5223353,15.7164355 75.1473353,16.2391628 74.6814262,16.670981 C74.2155171,17.1027991 73.6700625,17.4323446 73.0450625,17.6596173 C72.4200625,17.88689 71.7325625,18.0005264 70.9825625,18.0005264 C70.0507444,18.0005264 69.2126762,17.8385946 68.468358,17.514731 C67.7240398,17.1908673 67.0961989,16.7448446 66.5848353,16.1766628 C66.0734716,15.608481 65.6814262,14.9408673 65.4086989,14.1738219 C65.1359716,13.4067764 64.999608,12.5800719 64.999608,11.6937082 C64.999608,11.4664355 65.0081307,11.2432466 65.0251762,11.0241415 L65.029,10.987 L64.9124868,10.9702234 L64.9124868,10.9702234 L64.7609716,10.952231 C64.6018807,10.9351855 64.4484716,10.9266628 64.3007444,10.9266628 C63.8575625,10.9266628 63.4825625,11.0005264 63.1757444,11.1482537 C62.8689262,11.295981 62.6217671,11.4976855 62.4342671,11.7533673 C62.2467671,12.0090491 62.1132444,12.3073446 62.0336989,12.6482537 C61.9541534,12.9891628 61.9143807,13.358481 61.9143807,13.7562082 L61.9143807,13.7562082 L61.9143807,17.7277991 L59.4939262,17.7277991 L59.4939262,8.91529914 L61.7950625,8.91529914 L61.7950625,10.5516628 L61.8291534,10.5516628 C61.9427898,10.2789355 62.0961989,10.0260946 62.2893807,9.79314005 C62.4825625,9.5601855 62.7041534,9.36132187 62.9541534,9.19654914 C63.2041534,9.03177641 63.4711989,8.9039355 63.7552898,8.81302641 C64.0393807,8.72211732 64.3348353,8.67666277 64.6416534,8.67666277 C64.8007444,8.67666277 64.9768807,8.70507187 65.1700625,8.76189005 L65.1700625,8.76189005 L65.17,10.017 L65.2297216,9.75851647 C65.2552898,9.65713152 65.2829887,9.55676753 65.3128182,9.45742449 L65.4086989,9.16245823 C65.6814262,8.38404914 66.0734716,7.70507187 66.5848353,7.12552641 C67.0961989,6.54598096 67.7240398,6.0914355 68.468358,5.76189005 C69.2126762,5.43234459 70.0507444,5.26757187 70.9825625,5.26757187 Z M44.9541534,8.67666277 C45.6473353,8.67666277 46.2751762,8.78745823 46.8376762,9.00904914 C47.4001762,9.23064005 47.8802898,9.54314005 48.2780171,9.94654914 C48.6757444,10.3499582 48.9825625,10.8385946 49.1984716,11.4124582 C49.4143807,11.9863219 49.5223353,12.6255264 49.5223353,13.3300719 C49.5223353,14.0346173 49.4143807,14.670981 49.1984716,15.2391628 C48.9825625,15.8073446 48.6757444,16.29314 48.2780171,16.6965491 C47.8802898,17.0999582 47.4001762,17.4096173 46.8376762,17.6255264 C46.2751762,17.8414355 45.6473353,17.94939 44.9541534,17.94939 C44.2609716,17.94939 43.6359716,17.8414355 43.0791534,17.6255264 C42.5223353,17.4096173 42.0450625,17.0999582 41.6473353,16.6965491 C41.249608,16.29314 40.9427898,15.8073446 40.7268807,15.2391628 C40.5109716,14.670981 40.4030171,14.0346173 40.4030171,13.3300719 C40.4030171,12.6255264 40.5109716,11.9863219 40.7268807,11.4124582 C40.9427898,10.8385946 41.249608,10.3499582 41.6473353,9.94654914 C42.0450625,9.54314005 42.5223353,9.23064005 43.0791534,9.00904914 C43.6359716,8.78745823 44.2609716,8.67666277 44.9541534,8.67666277 Z M114.806426,8.67666277 C115.249608,8.67666277 115.698472,8.70791277 116.153017,8.77041277 C116.607563,8.83291277 117.022335,8.95507187 117.397335,9.13689005 C117.772335,9.31870823 118.079153,9.57154914 118.31779,9.89541277 C118.556426,10.2192764 118.675744,10.6482537 118.675744,11.1823446 L118.675744,11.1823446 L118.675744,15.7675719 L118.68332,16.1596173 C118.693421,16.4171931 118.713623,16.6671931 118.743926,16.9096173 C118.789381,17.2732537 118.868926,17.545981 118.982563,17.7277991 L118.982563,17.7277991 L116.528017,17.7277991 L116.466227,17.521123 L116.466227,17.521123 L116.417222,17.3101855 C116.388813,17.16814 116.368926,17.0232537 116.357563,16.8755264 C115.971199,17.2732537 115.516653,17.5516628 114.993926,17.7107537 C114.471199,17.8698446 113.937108,17.94939 113.391653,17.94939 C112.971199,17.94939 112.579153,17.8982537 112.215517,17.795981 C111.851881,17.6937082 111.533699,17.5346173 111.260972,17.3187082 C110.988244,17.1027991 110.775176,16.8300719 110.621767,16.5005264 C110.468358,16.170981 110.391653,15.7789355 110.391653,15.32439 C110.391653,14.82439 110.479722,14.4124582 110.655858,14.0885946 C110.831994,13.764731 111.059267,13.5062082 111.337676,13.3130264 C111.616085,13.1198446 111.934267,12.9749582 112.292222,12.8783673 C112.650176,12.7817764 113.010972,12.7050719 113.374608,12.6482537 C113.738244,12.5914355 114.096199,12.545981 114.448472,12.51189 C114.800744,12.4777991 115.113244,12.4266628 115.385972,12.358481 C115.658699,12.2902991 115.874608,12.1908673 116.033699,12.0601855 C116.19279,11.9295037 116.266653,11.7391628 116.25529,11.4891628 C116.25529,11.2277991 116.212676,11.0204128 116.127449,10.8670037 C116.042222,10.7135946 115.928585,10.5942764 115.78654,10.5090491 C115.644494,10.4238219 115.479722,10.3670037 115.292222,10.3385946 C115.104722,10.3101855 114.903017,10.295981 114.687108,10.295981 C114.209835,10.295981 113.834835,10.3982537 113.562108,10.6027991 C113.289381,10.8073446 113.13029,11.1482537 113.084835,11.6255264 L113.084835,11.6255264 L110.664381,11.6255264 L110.685601,11.3879336 C110.741259,10.9245756 110.876231,10.5321823 111.090517,10.2107537 C111.340517,9.83575368 111.658699,9.53461732 112.045063,9.30734459 C112.431426,9.08007187 112.866085,8.91814005 113.34904,8.82154914 C113.831994,8.72495823 114.31779,8.67666277 114.806426,8.67666277 Z M81.3291534,8.67666277 C82.0223353,8.67666277 82.6501762,8.78745823 83.2126762,9.00904914 C83.7751762,9.23064005 84.2552898,9.54314005 84.6530171,9.94654914 C85.0507444,10.3499582 85.3575625,10.8385946 85.5734716,11.4124582 C85.7893807,11.9863219 85.8973353,12.6255264 85.8973353,13.3300719 C85.8973353,14.0346173 85.7893807,14.670981 85.5734716,15.2391628 C85.3575625,15.8073446 85.0507444,16.29314 84.6530171,16.6965491 C84.2552898,17.0999582 83.7751762,17.4096173 83.2126762,17.6255264 C82.6501762,17.8414355 82.0223353,17.94939 81.3291534,17.94939 C80.6359716,17.94939 80.0109716,17.8414355 79.4541534,17.6255264 C78.8973353,17.4096173 78.4200625,17.0999582 78.0223353,16.6965491 C77.624608,16.29314 77.3177898,15.8073446 77.1018807,15.2391628 C76.8859716,14.670981 76.7780171,14.0346173 76.7780171,13.3300719 C76.7780171,12.6255264 76.8859716,11.9863219 77.1018807,11.4124582 C77.3177898,10.8385946 77.624608,10.3499582 78.0223353,9.94654914 C78.4200625,9.54314005 78.8973353,9.23064005 79.4541534,9.00904914 C80.0109716,8.78745823 80.6359716,8.67666277 81.3291534,8.67666277 Z M52.6586989,8.91529914 L52.6586989,13.8925719 C52.6586989,14.6198446 52.7723353,15.1624582 52.999608,15.5204128 C53.2268807,15.8783673 53.6302898,16.0573446 54.2098353,16.0573446 C54.8689262,16.0573446 55.3461989,15.8613219 55.6416534,15.4692764 C55.937108,15.077231 56.0848353,14.4323446 56.0848353,13.5346173 L56.0848353,13.5346173 L56.0848353,8.91529914 L58.5052898,8.91529914 L58.5052898,17.7277991 L56.2041534,17.7277991 L56.2041534,16.5005264 L56.1530171,16.5005264 C55.8461989,17.01189 55.4484716,17.3812082 54.9598353,17.608481 C54.4711989,17.8357537 53.9711989,17.94939 53.4598353,17.94939 C52.812108,17.94939 52.280858,17.8641628 51.8660853,17.6937082 C51.4513125,17.5232537 51.124608,17.2817764 50.8859716,16.9692764 C50.6473353,16.6567764 50.4797216,16.2760946 50.3831307,15.827231 C50.2865398,15.3783673 50.2382444,14.8812082 50.2382444,14.3357537 L50.2382444,14.3357537 L50.2382444,8.91529914 L52.6586989,8.91529914 Z M33.9939262,5.55734459 L36.8405171,10.3641628 L39.6700625,5.55734459 L42.6530171,5.55734459 L38.1359716,13.0573446 L38.1359716,17.7277991 L35.4598353,17.7277991 L35.4598353,12.9891628 L30.9939262,5.55734459 L33.9939262,5.55734459 Z M96.9257444,8.67666277 C97.3916534,8.67666277 97.8234716,8.73348096 98.2211989,8.84711732 C98.6189262,8.96075368 98.9598353,9.14257187 99.2439262,9.39257187 C99.5280171,9.64257187 99.749608,9.96927641 99.9086989,10.3726855 C100.06779,10.7760946 100.147335,11.26189 100.147335,11.8300719 L100.147335,11.8300719 L100.147335,17.7277991 L97.7268807,17.7277991 L97.7268807,12.733481 C97.7268807,12.4380264 97.7155171,12.1596173 97.6927898,11.8982537 C97.6700625,11.63689 97.6075625,11.4096173 97.5052898,11.2164355 C97.4030171,11.0232537 97.2524489,10.8698446 97.0535853,10.7562082 C96.8547216,10.6425719 96.5848353,10.5857537 96.2439262,10.5857537 C95.9030171,10.5857537 95.6274489,10.6510946 95.4172216,10.7817764 C95.2069944,10.9124582 95.0422216,11.0829128 94.9229034,11.29314 C94.8035853,11.5033673 94.7240398,11.7420037 94.6842671,12.0090491 C94.6444944,12.2760946 94.624608,12.545981 94.624608,12.8187082 L94.624608,12.8187082 L94.624608,17.7277991 L92.2041534,17.7277991 L92.2041534,12.7846173 C92.2041534,12.5232537 92.1984716,12.264731 92.187108,12.0090491 C92.1757444,11.7533673 92.1274489,11.5175719 92.0422216,11.3016628 C91.9569944,11.0857537 91.8149489,10.9124582 91.6160853,10.7817764 C91.4172216,10.6510946 91.124608,10.5857537 90.7382444,10.5857537 C90.624608,10.5857537 90.4740398,10.6113219 90.2865398,10.6624582 C90.0990398,10.7135946 89.9172216,10.8101855 89.7410853,10.952231 C89.5649489,11.0942764 89.4143807,11.2988219 89.2893807,11.5658673 C89.1643807,11.8329128 89.1018807,12.1823446 89.1018807,12.6141628 L89.1018807,12.6141628 L89.1018807,17.7277991 L86.6814262,17.7277991 L86.6814262,8.91529914 L88.9655171,8.91529914 L88.9655171,10.108481 L88.999608,10.108481 C89.3177898,9.6539355 89.7013125,9.30166277 90.1501762,9.05166277 C90.5990398,8.80166277 91.1132444,8.67666277 91.6927898,8.67666277 C92.249608,8.67666277 92.7581307,8.78461732 93.218358,9.00052641 C93.6785853,9.2164355 94.0280171,9.59711732 94.2666534,10.1425719 C94.5280171,9.75620823 94.8831307,9.41529914 95.3319944,9.11984459 C95.780858,8.82439005 96.312108,8.67666277 96.9257444,8.67666277 Z M124.743926,8.67666277 C125.391653,8.67666277 125.922903,8.76473096 126.337676,8.94086732 C126.752449,9.11700368 127.079153,9.36132187 127.31779,9.67382187 C127.556426,9.98632187 127.72404,10.3670037 127.820631,10.8158673 C127.917222,11.264731 127.965517,11.76189 127.965517,12.3073446 L127.965517,12.3073446 L127.965517,17.7277991 L125.545063,17.7277991 L125.545063,12.7505264 C125.545063,12.0232537 125.431426,11.48064 125.204153,11.1226855 C124.976881,10.764731 124.573472,10.5857537 123.993926,10.5857537 C123.334835,10.5857537 122.857563,10.7817764 122.562108,11.1738219 C122.266653,11.5658673 122.118926,12.2107537 122.118926,13.108481 L122.118926,13.108481 L122.118926,17.7277991 L119.698472,17.7277991 L119.698472,8.91529914 L121.999608,8.91529914 L121.999608,10.1425719 L122.050744,10.1425719 C122.357563,9.63120823 122.75529,9.25904914 123.243926,9.02609459 C123.732563,8.79314005 124.232563,8.67666277 124.743926,8.67666277 Z M116.25529,13.4152991 L116.173791,13.4797523 C116.087499,13.5404767 115.986824,13.590015 115.871767,13.6283673 C115.718358,13.6795037 115.553585,13.7221173 115.377449,13.7562082 C115.201313,13.7902991 115.016653,13.8187082 114.823472,13.8414355 C114.63029,13.8641628 114.437108,13.8925719 114.243926,13.9266628 C114.062108,13.9607537 113.883131,14.0062082 113.706994,14.0630264 C113.530858,14.1198446 113.377449,14.1965491 113.246767,14.29314 C113.116085,14.389731 113.010972,14.51189 112.931426,14.6596173 C112.851881,14.8073446 112.812108,14.9948446 112.812108,15.2221173 C112.812108,15.4380264 112.851881,15.6198446 112.931426,15.7675719 C113.010972,15.9152991 113.118926,16.0317764 113.25529,16.1170037 C113.391653,16.202231 113.550744,16.26189 113.732563,16.295981 C113.914381,16.3300719 114.101881,16.3471173 114.295063,16.3471173 C114.772335,16.3471173 115.141653,16.2675719 115.403017,16.108481 C115.664381,15.94939 115.857563,15.7590491 115.982563,15.5374582 C116.107563,15.3158673 116.184267,15.0914355 116.212676,14.8641628 C116.241085,14.63689 116.25529,14.4550719 116.25529,14.3187082 L116.25529,14.3187082 L116.25529,13.4152991 Z M44.9541534,10.5005264 C44.5450625,10.5005264 44.2041534,10.5829128 43.9314262,10.7476855 C43.6586989,10.9124582 43.4399489,11.1255264 43.2751762,11.38689 C43.1104034,11.6482537 42.9939262,11.94939 42.9257444,12.2902991 C42.8575625,12.6312082 42.8234716,12.9777991 42.8234716,13.3300719 C42.8234716,13.6823446 42.8575625,14.0260946 42.9257444,14.3613219 C42.9939262,14.6965491 43.1104034,14.9976855 43.2751762,15.264731 C43.4399489,15.5317764 43.6586989,15.7448446 43.9314262,15.9039355 C44.2041534,16.0630264 44.5450625,16.1425719 44.9541534,16.1425719 C45.3632444,16.1425719 45.7069944,16.0630264 45.9854034,15.9039355 C46.2638125,15.7448446 46.4854034,15.5317764 46.6501762,15.264731 C46.8149489,14.9976855 46.9314262,14.6965491 46.999608,14.3613219 C47.0677898,14.0260946 47.1018807,13.6823446 47.1018807,13.3300719 C47.1018807,12.9777991 47.0677898,12.6312082 46.999608,12.2902991 C46.9314262,11.94939 46.8149489,11.6482537 46.6501762,11.38689 C46.4854034,11.1255264 46.2638125,10.9124582 45.9854034,10.7476855 C45.7069944,10.5829128 45.3632444,10.5005264 44.9541534,10.5005264 Z M81.3291534,10.5005264 C80.9200625,10.5005264 80.5791534,10.5829128 80.3064262,10.7476855 C80.0336989,10.9124582 79.8149489,11.1255264 79.6501762,11.38689 C79.4854034,11.6482537 79.3689262,11.94939 79.3007444,12.2902991 C79.2325625,12.6312082 79.1984716,12.9777991 79.1984716,13.3300719 C79.1984716,13.6823446 79.2325625,14.0260946 79.3007444,14.3613219 C79.3689262,14.6965491 79.4854034,14.9976855 79.6501762,15.264731 C79.8149489,15.5317764 80.0336989,15.7448446 80.3064262,15.9039355 C80.5791534,16.0630264 80.9200625,16.1425719 81.3291534,16.1425719 C81.7382444,16.1425719 82.0819944,16.0630264 82.3604034,15.9039355 C82.6388125,15.7448446 82.8604034,15.5317764 83.0251762,15.264731 C83.1899489,14.9976855 83.3064262,14.6965491 83.374608,14.3613219 C83.4427898,14.0260946 83.4768807,13.6823446 83.4768807,13.3300719 C83.4768807,12.9777991 83.4427898,12.6312082 83.374608,12.2902991 C83.3064262,11.94939 83.1899489,11.6482537 83.0251762,11.38689 C82.8604034,11.1255264 82.6388125,10.9124582 82.3604034,10.7476855 C82.0819944,10.5829128 81.7382444,10.5005264 81.3291534,10.5005264 Z M105.635972,10.5005264 C105.238244,10.5005264 104.905858,10.5829128 104.638813,10.7476855 C104.371767,10.9124582 104.155858,11.1255264 103.991085,11.38689 C103.826313,11.6482537 103.709835,11.94939 103.641653,12.2902991 C103.573472,12.6312082 103.539381,12.983481 103.539381,13.3471173 C103.539381,13.69939 103.576313,14.045981 103.650176,14.38689 C103.72404,14.7277991 103.843358,15.0260946 104.008131,15.2817764 C104.172903,15.5374582 104.391653,15.7448446 104.664381,15.9039355 C104.937108,16.0630264 105.266653,16.1425719 105.653017,16.1425719 C106.050744,16.1425719 106.383131,16.0630264 106.650176,15.9039355 C106.917222,15.7448446 107.133131,15.5374582 107.297903,15.2817764 C107.462676,15.0260946 107.579153,14.7277991 107.647335,14.38689 C107.715517,14.045981 107.749608,13.69939 107.749608,13.3471173 C107.749608,12.9948446 107.712676,12.6482537 107.638813,12.3073446 C107.564949,11.9664355 107.44279,11.6624582 107.272335,11.3954128 C107.101881,11.1283673 106.883131,10.9124582 106.616085,10.7476855 C106.34904,10.5829128 106.022335,10.5005264 105.635972,10.5005264 Z" id="Combined-Shape"></path>
            </g>
            <g id="Group-4" transform="translate(0.000000, 45.000000)">
                <rect id="Rectangle" fill="#EBFAF2" x="0" y="0" width="420" height="50"></rect>
                <text id="Contact-Customer-Sup" font-family="HelveticaNeue-Medium, Helvetica Neue" font-size="14" font-weight="400" fill="#15232B">
                    <tspan x="122.752" y="30">Contact Customer Support</tspan>
                </text>
            </g>
            <g id="Group-24" transform="translate(9.000000, 111.000000)">
                <rect id="Rectangle" stroke="#BCC1C5" stroke-width="1.16606376" fill="#FFFFFF" x="0.58303188" y="19.0778171" width="188.994718" height="34.3988809" rx="4.66425504"></rect>
                <text id="First-Name" font-family="HelveticaNeue, Helvetica Neue" font-size="11.5592408" font-weight="normal" fill="#BCC1C5">
                    <tspan x="12.1142201" y="40.3811311">First Name</tspan>
                </text>
                <text id="First-Name" font-family="HelveticaNeue-Medium, Helvetica Neue" font-size="9.24739261" font-weight="400" fill="#15232B">
                    <tspan x="0" y="9">First Name</tspan>
                </text>
                <g id="Group-3" transform="translate(0.000000, 64.731748)">
                    <rect id="Rectangle" stroke="#BCC1C5" stroke-width="1.16606376" fill="#FFFFFF" x="0.58303188" y="19.0778171" width="398.171578" height="34.3988809" rx="4.66425504"></rect>
                    <text id="Email-Address" font-family="HelveticaNeue, Helvetica Neue" font-size="11.5592408" font-weight="normal" fill="#BCC1C5">
                        <tspan x="12.1142201" y="40.3811311">Email Address</tspan>
                    </text>
                    <text id="Email-Address" font-family="HelveticaNeue-Medium, Helvetica Neue" font-size="9.24739261" font-weight="400" fill="#15232B">
                        <tspan x="0" y="9">Email Address</tspan>
                    </text>
                </g>
                <g id="Group-3-Copy-2" transform="translate(0.000000, 130.000000)">
                    <rect id="Rectangle" stroke="#BCC1C5" stroke-width="1.16606376" fill="#FFFFFF" x="0.58303188" y="19.0778171" width="398.171578" height="34.3988809" rx="4.66425504"></rect>
                    <text id="Phone-Number" font-family="HelveticaNeue, Helvetica Neue" font-size="11.5592408" font-weight="normal" fill="#BCC1C5">
                        <tspan x="12.1142201" y="40.3811311">Phone Number</tspan>
                    </text>
                    <text id="Phone-Number" font-family="HelveticaNeue-Medium, Helvetica Neue" font-size="9.24739261" font-weight="400" fill="#15232B">
                        <tspan x="0" y="9">Phone Number</tspan>
                    </text>
                </g>
                <g id="Group-4" transform="translate(0.000000, 270.000000)">
                    <rect id="Rectangle-Copy-5" fill="#21B573" x="0" y="0" width="400" height="46" rx="3"></rect>
                    <text id="Contact-Us" font-family="HelveticaNeue-Bold, Helvetica Neue" font-size="12" font-weight="bold" fill="#FFFFFF">
                        <tspan x="168.382" y="27">Contact Us</tspan>
                    </text>
                </g>
                <g id="Group-3" transform="translate(0.000000, 197.000000)">
                    <rect id="Rectangle" stroke="#BCC1C5" stroke-width="1.16606376" fill="#FFFFFF" x="0.58303188" y="19.0778171" width="398.171578" height="34.3988809" rx="4.66425504"></rect>
                    <text id="Choose-your-reason-f" font-family="HelveticaNeue, Helvetica Neue" font-size="11.5592408" font-weight="normal" fill="#BCC1C5">
                        <tspan x="12.1142201" y="40.3811311">Choose your reason for contacting us</tspan>
                    </text>
                    <text id="Reason-for-Contact" font-family="HelveticaNeue-Medium, Helvetica Neue" font-size="9.24739261" font-weight="400" fill="#15232B">
                        <tspan x="0" y="9">Reason for Contact</tspan>
                    </text>
                    <g id="Group-5-Copy" transform="translate(381.272368, 31.299447)" fill="#15232B">
                        <path d="M3.36639628,0.142478388 L6.10386253,2.87994464 C6.18255117,2.95863328 6.18255117,3.08621277 6.10386253,3.16490141 C6.06607491,3.20268903 6.01482391,3.22391789 5.96138414,3.22391789 L0.486451644,3.22391789 C0.375169101,3.22391789 0.284956776,3.13370557 0.284956776,3.02242303 C0.284956776,2.96898326 0.306185638,2.91773226 0.343973256,2.87994464 L3.08143951,0.142478388 C3.16012815,0.063789747 3.28770764,0.063789747 3.36639628,0.142478388 Z" id="Triangle"></path>
                        <path d="M3.36639628,6.59031418 L6.10386253,9.32778042 C6.18255117,9.40646907 6.18255117,9.53404856 6.10386253,9.6127372 C6.06607491,9.65052482 6.01482391,9.67175368 5.96138414,9.67175368 L0.486451644,9.67175368 C0.375169101,9.67175368 0.284956776,9.58154136 0.284956776,9.47025881 C0.284956776,9.41681905 0.306185638,9.36556804 0.343973256,9.32778042 L3.08143951,6.59031418 C3.16012815,6.51162553 3.28770764,6.51162553 3.36639628,6.59031418 Z" id="Triangle-Copy" transform="translate(3.223918, 8.059795) scale(1, -1) translate(-3.223918, -8.059795) "></path>
                    </g>
                </g>
                <text id="Last-Name" font-family="HelveticaNeue-Medium, Helvetica Neue" font-size="9.24739261" font-weight="400" fill="#15232B">
                    <tspan x="208.066334" y="9">Last Name</tspan>
                </text>
                <g id="Group-2" transform="translate(209.176860, 18.065274)">
                    <rect id="Rectangle" stroke="#BCC1C5" stroke-width="1.16606376" fill="#FFFFFF" x="0.58303188" y="0.58303188" width="188.994718" height="34.3988809" rx="4.66425504"></rect>
                    <text id="Last-Name" font-family="HelveticaNeue, Helvetica Neue" font-size="11.5592408" font-weight="normal" fill="#BCC1C5">
                        <tspan x="16.2714909" y="21.8863459">Last Name</tspan>
                    </text>
                </g>
            </g>
        </g>
    </g>
</svg>